Patient4_TMGait_0pt2_02_right_22_EMG.mot
version=1
nRows=37
nColumns=33
inDegrees=no
endheader
time	1LAddLong	2LGlutMax	3LGlutMed	4LIliopsoas	5LSemiMemb	6LBicFemLong	7LRecFem	8LVastMed	9LVastLat	10LGasMed	11LTibAnt	12lTibPost	13LPeroneusLong	14LSol	15LExtDigLong	16LFlexDigLong	17RAddLong	18RGlutMax	19RGlutMed	20RIliopsoas	21RSemiMemb	22RBicFemLong	23RRecFem	24RVastMed	25RVastLat	26RGasMed	27RTibAnt	28RTibPost	29RPeroneusLong	30RSol	31RExtDigLong	32RFlexDigLong
49.36	-0.005035	-0.21759	-0.039063	0.007935	0.018158	0.032806	0.00885	0.001984	0.007324	-0.07782	0.11658	0.007629	0.12146	0.098114	-0.30365	0.000458	0.003967	0.28442	-0.55435	0.014191	0.18601	-0.18173	0.32059	0.26382	0.38696	0.003204	0.37338	-0.004272	-0.021515	-0.048676	-0.001373	-0.012817
49.361	0.001984	-0.2507	-0.080109	-0.0177	0.014954	0.046234	-0.003815	0.000153	0.016632	-0.010376	-0.25986	0.001221	0.048523	0.073853	-0.38162	-0.024872	0.009766	0.28091	-0.45685	0.054932	0.11017	-0.19257	0.30807	0.14557	0.41672	0.002441	0.31876	0.001831	-0.050964	0.08728	-0.001526	-0.006714
49.362	-0.006714	-0.20676	-0.083923	-0.00473	0.00473	0.060577	0.02121	0.007019	0.015411	0.018616	-0.23163	0.009003	0.010681	0.004272	-0.38101	-0.018005	0.025787	0.27832	-0.10422	0.10498	0.091858	-0.17105	0.32913	-0.037689	0.40298	0.000153	-0.068665	-0.004425	0.041656	0.18219	-0.001831	-0.00885
49.363	-0.002899	-0.17899	-0.049896	-0.006256	0.002136	0.07019	-0.002441	0.001373	0.010529	0.017395	-0.18219	0.00473	0.042572	-0.00824	-0.097961	-0.026398	0.017242	0.28656	-0.086365	0.002899	0.048981	-0.08728	0.3447	-0.023956	0.24109	-0.007019	-0.08316	-0.007324	-0.004425	0.014191	-0.000916	-0.011902
49.364	-0.021667	-0.23422	-0.045319	0.001526	-0.000305	0.070343	0.003967	0.003204	0.02594	0.023956	-0.093231	0.008392	0.000916	0.039978	-0.82932	-0.004425	0.002289	0.17258	-0.48141	-0.048065	-0.026398	0.076294	0.2214	-0.049133	0.14893	-0.006256	0.12283	-0.001526	-0.050964	-0.068817	0.000305	-0.016327
49.365	-0.016174	-0.24612	-0.039673	0.004425	-0.035095	0.035706	-0.009918	0.003815	0.005646	0.010834	-0.15106	0.016327	0.015259	-0.027924	-0.50339	-0.000153	-0.026398	0.067444	-0.48538	0.021667	-0.040741	0.22385	-0.28931	-0.076904	0.13229	-0.007019	-0.11231	-0.005035	-0.021973	-0.2475	-0.004425	-0.010071
49.366	-0.019073	-0.2504	-0.031738	-0.017242	-0.11383	0.025787	-0.02594	0.004272	0.029449	0.025177	-0.16312	0.009003	0.044556	-0.12161	-0.35553	-0.015106	-0.056458	0.063782	-0.43869	0.10162	0.001221	0.27069	-0.61066	0.001984	0.19943	-0.007019	-0.47669	-0.002136	-0.048218	-0.29984	-0.004272	-0.001526
49.367	-0.003357	-0.24323	0.015717	-0.010529	-0.041351	-0.02655	-0.035553	0.000305	0.033264	0.028839	-0.10452	0.007935	-0.002136	-0.17227	-0.25406	-0.016785	-0.027466	0.1207	-0.26855	0.11978	-0.040741	0.17136	-0.1857	-0.069885	0.19333	-0.006409	-0.16663	0.000153	-0.13443	-0.25925	-0.001526	-0.008545
49.368	-0.001984	-0.24612	0.024109	0.009003	0.06012	-0.028381	-0.017548	0.003815	0.011749	0.045166	-0.091553	0.005035	-0.028992	-0.24399	-0.12268	-0.008392	0.028534	0.15762	-0.33859	0.091095	0.020599	0.059814	0.18021	-0.2214	0.27405	-0.007782	-0.074463	-0.001221	-0.1506	-0.21286	-0.000153	-0.00351
49.369	-0.011292	-0.25757	-0.025482	-0.003357	-0.006561	0.014801	-0.006561	0.001984	0.015106	0.033417	-0.094452	0.008698	-0.030975	-0.18158	0.19623	-0.00885	0.052338	0.16632	-0.20493	-0.007019	-0.08728	0.11429	0.30426	-0.23789	0.31418	-0.001526	-0.12756	0.001984	-0.1355	-0.21927	-0.003357	-0.010071
49.37	-0.019836	-0.26886	-0.036774	0.002899	-0.012817	-0.005493	-0.029449	-0.005341	0.030975	0.028992	-0.080719	0.006104	-0.015717	-0.1236	0.31189	0.003052	0.036316	0.16296	0.05661	-0.044403	-0.25223	0.12024	0.43167	-0.2887	0.24384	0.000153	0.050659	-0.001068	-0.103	0.023346	0.005341	-0.010986
49.371	-0.025024	-0.24872	-0.029602	0.018311	-0.048676	0.027771	-0.037231	-0.005188	0.03418	0.030823	-0.062103	0.004578	0.007324	-0.05661	0.21729	-0.013885	0.007477	0.14267	0.26718	0.009613	-0.20401	0.052338	0.48004	-0.23361	0.080566	-0.00351	-0.075378	-0.002289	-0.040131	0.1471	-0.001526	-0.01358
49.372	-0.014343	-0.27573	-0.010681	0.029449	-0.10925	0.048218	-0.031738	-0.003052	0.023346	0.027618	-0.014496	-0.006866	0.009918	-0.088654	0.12741	0.001984	0.00061	0.11276	-0.036774	0.089569	-0.012817	-0.078735	0.51285	-0.14191	-0.14069	0.001678	-0.12222	-0.003357	0.005341	0.17654	-0.00061	-0.012665
49.373	-0.000763	-0.26199	-0.006104	0.025787	-0.16022	-0.020905	-0.039978	-0.002289	0.030365	0.034485	0.027924	0.010071	-0.006866	-0.083618	0.10254	-0.014343	0.009003	0.1413	0.06012	0.072937	0.082092	-0.19699	0.53207	-0.10635	-0.092773	0.002594	-0.31982	-0.00061	0.11643	0.11597	-0.000305	-0.015869
49.374	0.005341	-0.27084	-0.012665	0.009003	-0.083466	-0.086823	-0.035248	-0.004578	0.024719	0.043182	0.058289	0.001221	-0.018311	-0.051422	0.13031	-0.003815	0.007935	0.17853	-0.2063	0.073547	0.14511	-0.37033	0.51987	-0.25238	-0.29938	0.005951	-0.47913	0.000153	0.21149	0.005646	-0.00061	-0.010681
49.375	-0.000153	-0.27679	-0.00946	0.01236	0.13855	-0.11551	0.00946	-0.048981	0.004425	0.034332	0.058746	0.014496	-0.009003	-0.023956	0.1564	0.005951	-0.001526	0.16434	-0.41489	0.007782	0.11658	-0.29282	0.25177	-0.2565	-0.51071	0.002136	-0.35248	0.000305	0.19012	-0.012512	-0.00473	-0.007935
49.376	-0.005951	-0.26382	-0.006104	0.002441	0.18539	-0.09491	0.013275	-0.002747	0.008698	0.035706	0.045776	0.01358	-0.023193	0.008087	0.13763	0.019531	-0.043335	0.19226	-0.85953	0.005646	-0.055237	-0.006409	-0.33707	-0.093842	-0.74814	0	0.13657	-0.006561	0.014496	-0.019684	0.000305	-0.017242
49.377	-0.005035	-0.24323	-0.010376	-0.003815	0.1001	-0.13046	0.004425	0.000153	0.006866	0.028687	-0.020447	0.011902	-0.020447	0.005798	0.15564	0.017548	-0.031586	0.22553	-0.50858	-0.057373	0.010986	0.028381	-0.59906	-0.1326	-0.86594	0	0.086517	-0.000916	0.062561	-0.11353	-0.002441	-0.00473
49.378	0.001526	-0.26566	0.001678	0.031891	0.079956	-0.24902	0.005493	-0.002899	0.003357	0.024261	-0.014801	0.009766	-0.014954	0.001831	0.11139	0.014191	-0.007477	0.13275	0.83618	-0.12573	0.030823	-0.01297	-0.41382	-0.050049	-0.73364	0.001984	0.04364	-0.002899	0.055084	-0.13382	-0.004272	-0.008087
49.379	0.020294	-0.22003	0.014954	-0.013275	-0.039215	-0.2034	0.003357	0.001373	-0.010681	0.02243	-0.010529	0.006714	-0.00824	-0.011597	0.068207	0.004578	-0.020447	-0.054169	1.2335	-0.112	-0.013275	0.025635	-0.22705	0.23987	-0.64255	0.005798	0.54275	-0.001373	0.074615	-0.14084	-0.001221	-0.00824
49.38	0.010834	-0.22964	0.005493	-0.018463	0.010071	-0.13519	0.031891	0.001984	-0.029907	0.0354	0.021515	0.006714	-0.03479	0.005493	0.095825	0.014954	-0.028992	-0.16449	0.2211	-0.019531	-0.034637	0.056458	-0.053711	0.29633	-0.23453	-0.009918	0.43259	-0.004883	-0.11169	-0.09491	-0.00351	-0.001221
49.381	0.012054	-0.21683	0.000458	-0.010223	0.039215	-0.0383	0.046539	0.00351	-0.038452	0.027924	0.042572	0.007172	-0.018616	0.016022	0.092316	-0.007935	0	-0.26382	-0.23575	0.030212	-0.079803	0.078735	-0.032501	0.28519	0.30167	-0.014496	0.049438	-0.001984	-0.28107	0.030975	-0.001373	-0.005035
49.382	0.005035	-0.18829	0.005493	-0.009003	0.060883	-0.094147	0.013733	0.003967	-0.03479	0.049133	0.14343	0.012665	-0.039215	0.045319	0.009155	-0.011292	0.041656	-0.21683	0.075226	-0.002899	-0.13641	0.17364	0.25146	0.1564	0.44754	-0.019836	0.18173	0.002289	-0.30212	0.16525	-0.004578	-0.011902
49.383	0.008545	-0.18997	0.000153	0.018158	0.027618	-0.015411	0.035858	0.011597	-0.046692	0.052948	0.22064	0.011902	-0.054321	0.049438	0.99304	0.003052	0.063477	-0.18936	0.57907	-0.066376	-0.19333	0.13992	0.30548	-0.033722	0.1947	-0.016479	0.059509	-0.001068	0.027466	0.19379	-0.001526	-0.010376
49.384	-0.003204	-0.24277	-0.009308	0.0354	-0.02594	-0.007324	0.016632	0.011597	-0.037231	0.045624	0.29984	0.009918	-0.079956	0.090942	0.038605	0.00885	0.072784	-0.25192	-0.11337	-0.019379	-0.17654	0.045929	0.38238	-0.15961	0.014954	0.000458	-0.85449	-0.00061	-0.029449	0.026245	-0.002899	-0.01236
49.385	-0.005493	-0.18433	-0.036316	0.027618	-0.013123	0.014801	0.018463	0.010834	-0.031128	0.011139	0.25986	0.013428	-0.027924	0.13504	0.15579	0.009003	0.072327	-0.29984	-0.27603	0.02243	-0.011444	0.01236	0.45334	-0.16419	0.052643	0.018921	-0.57709	-0.002594	-0.04837	-0.14389	-0.004272	0.001984
49.386	0.006866	-0.20447	-0.024872	0.021362	-0.039978	-0.00946	0.007477	0.006714	-0.02121	0.018616	0.10223	0.016632	0.028381	0.15106	0.3125	0.023041	0.0177	-0.27359	-0.27741	0.042877	0.25742	0.16785	0.19791	-0.20279	0.12772	0.025177	-0.042114	-0.000153	0.003357	-0.13367	-0.006561	-0.007324
49.387	0.004578	-0.17609	0.048523	-0.005035	-0.1651	0.10696	0.001526	-0.000305	-0.010681	-0.010681	0.1648	0.014343	-0.010529	0.18539	0.5072	0.002899	-0.029602	-0.1532	-0.38773	0.12482	0.16342	0.14343	0.049744	-0.016022	0.11292	0.012665	-0.25467	-0.000305	0.21103	-0.087891	0	0.000153
49.388	0.008545	-0.19684	0.095062	-0.020142	-0.090332	0.2356	0.017853	0.003662	-0.01297	-0.034332	-0.27893	0.015106	0.11612	0.20493	-0.24155	-0.001831	-0.026245	-0.14923	-0.33859	0.080872	-0.036163	0.08728	0.064545	0.16632	0.18478	0.001221	-0.52322	-0.002441	0.19684	-0.003204	-0.004578	-0.007782
49.389	0.008087	-0.19028	0.049286	-0.02182	0.1413	0.3154	0.031433	0.006104	-0.027771	-0.054779	-0.003204	0.018768	0.15045	0.28809	-0.35339	-0.014038	-0.035095	-0.18433	-0.23056	0.007782	-0.14954	-0.02121	0.14328	0.13077	0.30472	-0.010681	-0.43808	-0.005341	0.10269	0.1294	-0.000458	-0.00885
49.39	-0.003357	-0.22583	-0.020142	0.001221	0.16815	0.21591	0.030823	0.001678	-0.029907	-0.066681	-0.20676	0.017242	0.14221	0.29541	-0.27054	0.010223	0.003967	-0.23453	-0.28275	0.020905	-0.47501	-0.28076	0.14938	0.086365	0.46295	-0.00885	-0.19867	-0.005035	0.098877	0.1535	-0.003967	-0.01358
49.391	0.004578	-0.25421	0.019379	0.011139	0.14587	0.095825	0.020905	0.006866	-0.02243	-0.014343	-0.12344	0.014191	-0.015869	0.23102	-0.49911	0.006256	0.007782	-0.21347	0.15259	-0.04715	-0.51682	-0.40131	0.027313	0.036011	0.44693	0.002136	-0.16785	-0.001678	0.089264	0.14465	-0.003052	-0.000305
49.392	-0.000458	-0.20233	0.037231	0.012207	0.083771	0.005646	0.006866	0.000916	-0.001984	0.019531	0.06424	0.00824	-0.005035	0.094147	-0.27679	-0.015411	0.006409	-0.12772	0.77164	-0.086365	-0.053406	-0.37018	0.016632	0.028839	0.27374	0.001831	0.13367	-0.001373	0.10025	0.13382	-0.002441	-0.008392
49.393	-0.004578	-0.20767	0.073547	0.017853	0.031128	-0.052795	-0.008087	0.014496	-0.009766	0.016022	-0.25803	0.015259	0.022125	-0.001526	-0.31403	-0.012512	-0.006256	-0.1416	0.34363	-0.042725	-0.10086	-0.3746	-0.19775	0.096741	-0.12421	-0.004425	0.13504	-0.007477	0.13336	0.08316	0.000916	-0.010223
49.394	-0.010529	-0.18219	0.06012	-0.018768	0.00351	-0.22568	0.02533	0.004425	-0.017242	0.030518	-0.45532	0.017395	0.063019	-0.029297	-0.69351	-0.01297	-0.07843	-0.12894	-0.11185	-0.075378	0.13886	-0.34195	-0.40359	0.57068	-0.36057	0.004883	-0.29098	-0.001373	0.14496	0.032349	-0.002441	0.001221
49.395	-0.003967	-0.17532	0.039825	-0.014038	-0.034332	-0.16464	0.010681	0.003815	-0.017548	0.002289	-0.25803	0.017548	0.077362	-0.014038	-0.55328	-0.014343	-0.080414	-0.03006	-0.354	-0.11932	0.10284	-0.27588	-0.47119	0.84412	0.012207	-0.003967	-0.36179	0	0.035095	0.12787	-0.010071	-0.007172
49.396	0.005341	-0.18036	0.04776	0.002747	0.000916	-0.049744	0.018158	-0.001221	-0.003815	0.010834	0.090179	0.016632	0.016327	0.002441	-0.25421	-0.001831	-0.019684	-0.020142	-0.17517	-0.090332	0.10696	-0.30273	-0.039063	0.62973	0.036774	-0.006561	-0.20691	0	0.013428	0.29388	-0.00946	-0.009613
